<svg xmlns="http://www.w3.org/2000/svg" width="900" height="520" viewBox="0 0 900 520" role="img" aria-labelledby="title"><title id="title">Sample temperature map</title><rect width="900" height="520" fill="#f8fafc"/><text x="46" y="58" font-family="Segoe UI,Arial" font-size="28" font-weight="700" fill="#0f172a">GFS 2m Temperature</text><text x="46" y="88" font-family="Segoe UI,Arial" font-size="15" fill="#475569">Example portfolio map preview</text><rect x="55" y="120" width="620" height="340" rx="8" fill="#dbeafe" stroke="#cbd5e1"/><ellipse cx="270" cy="250" rx="185" ry="130" fill="#38bdf8"/><ellipse cx="420" cy="300" rx="210" ry="145" fill="#f97316" opacity="0.82"/><ellipse cx="515" cy="225" rx="95" ry="80" fill="#ef4444" opacity="0.86"/><path d="M145 330 C240 280 325 365 425 315 C520 270 575 330 635 285" fill="none" stroke="#fff" stroke-width="4" opacity="0.8"/><g font-family="Segoe UI,Arial"><rect x="710" y="150" width="140" height="250" rx="8" fill="#fff" stroke="#cbd5e1"/><text x="735" y="185" font-size="16" font-weight="700" fill="#0f172a">degC</text><rect x="735" y="215" width="34" height="24" fill="#38bdf8"/><rect x="735" y="245" width="34" height="24" fill="#facc15"/><rect x="735" y="275" width="34" height="24" fill="#f97316"/><rect x="735" y="305" width="34" height="24" fill="#ef4444"/><text x="782" y="234" font-size="13" fill="#475569">cool</text><text x="782" y="264" font-size="13" fill="#475569">mild</text><text x="782" y="294" font-size="13" fill="#475569">warm</text><text x="782" y="324" font-size="13" fill="#475569">hot</text></g></svg>
