<svg xmlns="http://www.w3.org/2000/svg" width="900" height="520" viewBox="0 0 900 520" role="img" aria-labelledby="title"><title id="title">Sample surface wind map</title><rect width="900" height="520" fill="#f8fafc"/><text x="46" y="58" font-family="Segoe UI,Arial" font-size="28" font-weight="700" fill="#0f172a">GFS Surface Wind Speed</text><text x="46" y="88" font-family="Segoe UI,Arial" font-size="15" fill="#475569">Example portfolio map preview</text><rect x="55" y="120" width="620" height="340" rx="8" fill="#e0f2fe" stroke="#cbd5e1"/><g opacity="0.9"><circle cx="270" cy="290" r="142" fill="#22c55e"/><circle cx="360" cy="250" r="116" fill="#2563eb"/><circle cx="460" cy="330" r="92" fill="#7c3aed"/></g><g stroke="#0f172a" stroke-width="2" opacity="0.55"><path d="M150 190 q55 35 110 0"/><path d="M180 270 q70 45 140 0"/><path d="M330 210 q65 40 130 0"/><path d="M410 350 q70 40 140 0"/></g><g font-family="Segoe UI,Arial"><rect x="710" y="150" width="140" height="250" rx="8" fill="#fff" stroke="#cbd5e1"/><text x="735" y="185" font-size="16" font-weight="700" fill="#0f172a">m/s</text><rect x="735" y="215" width="34" height="24" fill="#e0f2fe"/><rect x="735" y="245" width="34" height="24" fill="#22c55e"/><rect x="735" y="275" width="34" height="24" fill="#2563eb"/><rect x="735" y="305" width="34" height="24" fill="#7c3aed"/><text x="782" y="234" font-size="13" fill="#475569">0-5</text><text x="782" y="264" font-size="13" fill="#475569">5-10</text><text x="782" y="294" font-size="13" fill="#475569">10-15</text><text x="782" y="324" font-size="13" fill="#475569">15+</text></g></svg>
